# xmcd CD database file
#
# Track frame offsets:
#	150
#	22527
#	48270
#	66907
#	77550
#	89820
#	109560
#	128560
#	148925
#	162807
#	180012
#	191510
#
# Disc length: 2915 seconds
#
# Revision: 0
# Processed by: cddbd v1.5.2PL0 Copyright (c) Steve Scherf et al.
# Submitted via: CDex 1.51
#
DISCID=8d0b610c
DTITLE=Anita Kerr - In the Soul
DYEAR=1988
DGENRE=Country
TTITLE0=Autumn Rivulets
TTITLE1=I Sing the Body Electric
TTITLE2=Animals
TTITLE3=Three Old Men
TTITLE4=Friends Are Enough
TTITLE5=God
TTITLE6=Touch Me
TTITLE7=Sounds
TTITLE8=April 1865
TTITLE9=Dandelion
TTITLE10=What Is the Grass
TTITLE11=On the Beach
EXTD=YEAR: 1988
EXTT0=
EXTT1=
EXTT2=
EXTT3=
EXTT4=
EXTT5=
EXTT6=
EXTT7=
EXTT8=
EXTT9=
EXTT10=
EXTT11=
PLAYORDER=
